# xmcd CD database file
#
# Track frame offsets:
#	150
#	14402
#	25631
#	55893
#	75371
#	107581
#	122582
#	134458
#	165224
#	175997
#	194814
#	218702
#
# Disc length: 3341 seconds
#
# Revision: 2
# Processed by: cddbd v1.5PL3 Copyright (c) Steve Scherf et al.
# Submitted via: CDex 1.51
#
DISCID=960d0b0c
DTITLE=Deep Shade of Blue - eins
DYEAR=2002
DGENRE=Jazz
TTITLE0=The sun ain´t gonna shine anymore
TTITLE1=Julia
TTITLE2=Every little thing
TTITLE3=God only knows
TTITLE4=She said, she said
TTITLE5=substitute
TTITLE6=another tear falls
TTITLE7=et maintenant
TTITLE8=in my life
TTITLE9=tin soldier
TTITLE10=God give me strength
TTITLE11=Flight of the rat
EXTD=YEAR: 2002
EXTT0=
EXTT1=
EXTT2=
EXTT3=
EXTT4=
EXTT5=
EXTT6=
EXTT7=
EXTT8=
EXTT9=
EXTT10=
EXTT11=
PLAYORDER=
